PathFileType	4	(X/Y/Z)	/Users/itak/Documents/Research/Walk-IL/dataset/trc/00483_00167.trc
DataRate	CameraRate	NumFrames	NumMarkers	Units	OrigDataRate	OrigDataStartFrame	OrigNumFrames
100.000000	100.000000	4	53	mm	100.000000	149	599
Frame#	Time	RPSI			LPSI			L3			STRN			T10			C7			CLAV			RBAK			LBAK			LSHO			LUPA			LAEL			LAOL			LWTS			LWPS			LFRA			LIFD			LHPS			LHTS			RSHO			RUPA			RAEL			RAOL			RWTS			RWPS			RFRA			RIFD			RHTS			RHPS			RBHD			LFHD			RFHD			LBHD			LHIP			RHIP			RASI			LASI			LKNE			LTHI			LANK			LTIP			LTOE			LMT1			LMT5			LHEE			RKNE			RTHI			RANK			RTIP			RTOE			RMT1			RMT5			RHEE			
		X1	Y1	Z1	X2	Y2	Z2	X3	Y3	Z3	X4	Y4	Z4	X5	Y5	Z5	X6	Y6	Z6	X7	Y7	Z7	X8	Y8	Z8	X9	Y9	Z9	X10	Y10	Z10	X11	Y11	Z11	X12	Y12	Z12	X13	Y13	Z13	X14	Y14	Z14	X15	Y15	Z15	X16	Y16	Z16	X17	Y17	Z17	X18	Y18	Z18	X19	Y19	Z19	X20	Y20	Z20	X21	Y21	Z21	X22	Y22	Z22	X23	Y23	Z23	X24	Y24	Z24	X25	Y25	Z25	X26	Y26	Z26	X27	Y27	Z27	X28	Y28	Z28	X29	Y29	Z29	X30	Y30	Z30	X31	Y31	Z31	X32	Y32	Z32	X33	Y33	Z33	X34	Y34	Z34	X35	Y35	Z35	X36	Y36	Z36	X37	Y37	Z37	X38	Y38	Z38	X39	Y39	Z39	X40	Y40	Z40	X41	Y41	Z41	X42	Y42	Z42	X43	Y43	Z43	X44	Y44	Z44	X45	Y45	Z45	X46	Y46	Z46	X47	Y47	Z47	X48	Y48	Z48	X49	Y49	Z49	X50	Y50	Z50	X51	Y51	Z51	X52	Y52	Z52	X53	Y53	Z53	

150	1.49	-1204.973388671875	948.79296875	-194.9374847412109	-1182.098999023438	959.0094604492188	-335.4635009765625	-1176.9404296875	1047.317993164062	-248.1475677490234	-899.2658081054688	1238.450561523438	-235.159912109375	-1191.12255859375	1171.68115234375	-251.5096435546875	-1117.046875	1438.121948242188	-232.6812744140625	-934.9017944335938	1351.658447265625	-239.9037628173828	-1187.610595703125	1318.076904296875	-143.7222900390625	-1147.728393554688	1393.160400390625	-333.0401000976562	-1042.515258789062	1412.925170898438	-409.4398498535156	-1054.092163085938	1295.760864257812	-508.9346618652344	-1032.384887695312	1080.105224609375	-545.3229370117188	-1110.070434570312	1065.200561523438	-478.1283264160156	-943.1909790039062	881.025390625	-505.3450012207031	-993.55615234375	863.1922607421875	-557.6868896484375	-1009.569519042969	993.3506469726562	-555.2932739257812	-936.7006225585938	721.0671997070312	-516.3657836914062	-986.828125	786.920166015625	-557.9484252929688	-927.661865234375	795.9345703125	-515.5165405273438	-1059.007568359375	1404.507080078125	-71.47383880615234	-1083.944946289062	1347.627197265625	2.952443838119507	-1098.458374023438	1071.1904296875	81.87204742431641	-1145.018798828125	1052.296020507812	36.18464660644531	-1003.9423828125	854.47021484375	72.90269470214844	-1079.462524414062	853.6985473632812	120.6010818481445	-1099.311889648438	1013.965759277344	97.63494110107422	-1028.107788085938	699.3839111328125	96.21489715576172	-1006.058776855469	755.9453735351562	92.49760437011719	-1075.977294921875	770.0556030273438	128.8358459472656	-998.2086791992188	1638.061645507812	-141.2695007324219	-868.3555908203125	1622.353881835938	-301.7116394042969	-863.67724609375	1626.256469726562	-171.4688568115234	-1019.561218261719	1640.3720703125	-317.7176818847656	-1033.463012695312	856.757568359375	-440.6431884765625	-1103.9931640625	842.8023071289062	-42.8905143737793	-998.5369262695312	884.6644287109375	-96.46652984619141	-947.4912719726562	886.525634765625	-348.7896118164062	-1078.251953125	437.6488037109375	-397.1150207519531	-1028.962158203125	585.3538208007812	-416.0106811523438	-1200.9560546875	36.87942504882812	-387.1195983886719	-1101.7841796875	288.7998657226562	-404.3885803222656	-979.0955200195312	54.78470230102539	-286.4601135253906	-1059.409912109375	54.49518203735352	-268.5625610351562	-1049.324462890625	51.22468566894531	-379.3961181640625	-1254.5498046875	42.39790725708008	-330.1989135742188	-1008.040832519531	473.8826293945312	-7.548543930053711	-1037.427612304688	724.78564453125	-19.19819450378418	-1217.772094726562	79.53928375244141	31.99873924255371	-1064.31884765625	343.8430480957031	19.0879955291748	-1010.125366210938	46.65793609619141	2.884082078933716	-1062.662353515625	55.4947509765625	-38.41185760498047	-1094.46826171875	48.72654724121094	63.72479248046875	-1275.3232421875	95.04915618896484	-20.14370536804199	
151	1.5	-1203.728271484375	946.6846313476562	-196.9144897460938	-1180.510986328125	957.8016967773438	-337.3160400390625	-1176.03759765625	1046.758178710938	-250.487060546875	-897.0782470703125	1237.3515625	-236.7235565185547	-1189.086547851562	1171.031005859375	-253.7743682861328	-1114.394165039062	1437.345581054688	-234.7561187744141	-932.4954833984375	1350.63134765625	-241.4620056152344	-1185.406127929688	1317.39990234375	-146.0503387451172	-1144.8173828125	1392.478881835938	-335.1994934082031	-1039.364990234375	1412.094116210938	-411.3549499511719	-1050.615600585938	1294.819213867188	-510.8202819824219	-1028.751342773438	1079.055908203125	-546.7516479492188	-1106.837768554688	1064.259155273438	-480.00341796875	-939.4593505859375	880.1649780273438	-505.7829284667969	-989.6804809570312	862.1068725585938	-558.2254028320312	-1005.833801269531	992.296142578125	-556.3450927734375	-933.1854248046875	720.0521850585938	-516.2420043945312	-983.0640869140625	785.8079223632812	-558.2296142578125	-923.7538452148438	795.1267700195312	-515.5057983398438	-1056.918334960938	1403.567504882812	-73.36989593505859	-1082.140014648438	1346.695678710938	0.9014092683792114	-1097.269897460938	1070.552124023438	80.28996276855469	-1143.689819335938	1051.569580078125	34.45925521850586	-1002.654418945312	853.8906860351562	72.09662628173828	-1078.38330078125	853.127197265625	119.4834747314453	-1098.192260742188	1013.362426757812	96.15482330322266	-1026.6962890625	698.857421875	95.80614471435547	-1004.726257324219	755.436279296875	92.00273895263672	-1074.816040039062	769.4891967773438	127.9787368774414	-995.8837280273438	1637.050659179688	-142.9204864501953	-866.0380249023438	1621.91943359375	-303.362548828125	-861.343505859375	1625.699340820312	-173.1058502197266	-1017.295654296875	1639.488159179688	-319.3749389648438	-1031.61572265625	856.1640625	-442.3981323242188	-1101.200805664062	841.7608642578125	-44.41787719726562	-996.6013793945312	884.9037475585938	-98.30030822753906	-945.7630004882812	885.8475341796875	-350.5860900878906	-1078.5458984375	437.394287109375	-398.7563781738281	-1028.508422851562	584.877685546875	-417.6200256347656	-1201.1787109375	36.69061660766602	-387.2787170410156	-1102.094848632812	288.6434020996094	-405.6019897460938	-979.2415161132812	55.39289474487305	-286.7648315429688	-1059.581909179688	54.92950439453125	-268.9441528320312	-1049.434814453125	51.2053108215332	-379.6226196289062	-1254.74072265625	42.31158828735352	-330.3246154785156	-993.2127685546875	476.4803771972656	-7.668435573577881	-1031.010620117188	725.4834594726562	-20.55450630187988	-1213.575317382812	87.90452575683594	31.14972686767578	-1051.909912109375	347.470947265625	18.82561492919922	-1008.963439941406	46.50947189331055	2.96670937538147	-1060.238647460938	55.71927642822266	-38.94640350341797	-1092.484497070312	50.8495979309082	62.775146484375	-1270.0341796875	106.2826843261719	-21.23675346374512	
152	1.51	-1202.287841796875	944.6473999023438	-198.6826629638672	-1178.847900390625	956.5932006835938	-338.9757080078125	-1175.12841796875	1046.19970703125	-252.7363128662109	-894.7463989257812	1236.22216796875	-238.1275482177734	-1186.938842773438	1170.406127929688	-256.0416564941406	-1111.576171875	1436.57861328125	-236.8145751953125	-929.923583984375	1349.582397460938	-242.8811340332031	-1183.092651367188	1316.75390625	-148.3916778564453	-1141.680786132812	1391.813720703125	-337.3630676269531	-1035.90478515625	1411.234497070312	-413.1779479980469	-1046.732543945312	1293.873657226562	-512.6441040039062	-1024.783203125	1078.013427734375	-548.127685546875	-1103.31787109375	1063.326171875	-481.9351501464844	-935.4674072265625	879.2958374023438	-506.1548156738281	-985.4979858398438	861.0405883789062	-558.74462890625	-1001.766784667969	991.2496948242188	-557.35009765625	-929.4148559570312	719.037841796875	-516.1571655273438	-978.962646484375	784.716064453125	-558.5325927734375	-919.550537109375	794.329345703125	-515.4669189453125	-1054.7578125	1402.675048828125	-75.22385406494141	-1080.329467773438	1345.838012695312	-1.093910455703735	-1096.147094726562	1069.934326171875	78.69338989257812	-1142.400512695312	1050.872802734375	32.69847869873047	-1001.330200195312	853.3823852539062	71.23474884033203	-1077.318237304688	852.5589599609375	118.2758331298828	-1097.128051757812	1012.765686035156	94.63897705078125	-1025.2001953125	698.3626098632812	95.23531341552734	-1003.34765625	754.980712890625	91.38748931884766	-1073.627197265625	768.9108276367188	126.9737091064453	-993.412109375	1636.031372070312	-144.5480651855469	-863.57275390625	1621.474731445312	-304.995361328125	-858.8634033203125	1625.172607421875	-174.7113647460938	-1014.879150390625	1638.553588867188	-320.9996337890625	-1029.840454101562	855.57861328125	-444.0714111328125	-1098.162841796875	840.88916015625	-45.762451171875	-994.3999633789062	885.2460327148438	-99.98906707763672	-943.9981689453125	885.15869140625	-352.2930297851562	-1078.932250976562	437.1553649902344	-400.3251953125	-1028.176025390625	584.4237670898438	-419.1646728515625	-1201.39208984375	36.53645324707031	-387.4180603027344	-1102.520629882812	288.5350952148438	-406.7985534667969	-979.3964233398438	55.94913864135742	-287.1582641601562	-1059.68310546875	55.36636352539062	-269.3624877929688	-1049.565307617188	51.15473175048828	-379.9245300292969	-1254.933349609375	42.23943328857422	-330.4026489257812	-978.2872314453125	479.3467102050781	-7.91921329498291	-1024.445068359375	726.4013671875	-21.74342727661133	-1208.422119140625	96.71172332763672	30.19085502624512	-1038.905517578125	351.1927795410156	18.38187026977539	-1007.076171875	46.51095581054688	2.811169147491455	-1057.314819335938	56.16133880615234	-39.74566650390625	-1089.70947265625	53.63947296142578	61.7008056640625	-1263.855224609375	117.6333312988281	-22.29742050170898	
153	1.52	-1200.597412109375	942.7285766601562	-200.1906890869141	-1177.08935546875	955.4189453125	-340.408935546875	-1174.13330078125	1045.634399414062	-254.8525238037109	-892.2470092773438	1235.087158203125	-239.3599853515625	-1184.654541015625	1169.802490234375	-258.2825927734375	-1108.599365234375	1435.828735351562	-238.8338012695312	-927.182861328125	1348.532348632812	-244.1557922363281	-1180.664916992188	1316.13720703125	-150.7251586914062	-1138.326416015625	1391.173706054688	-339.5186767578125	-1032.156494140625	1410.355346679688	-414.8988037109375	-1042.463745117188	1292.930908203125	-514.3912963867188	-1020.483825683594	1076.977661132812	-549.4443969726562	-1099.518920898438	1062.3974609375	-483.9112854003906	-931.2315673828125	878.4207763671875	-506.4569091796875	-981.0089721679688	859.9940795898438	-559.2384643554688	-997.36572265625	990.2105102539062	-558.2994384765625	-925.3776245117188	718.0299682617188	-516.0919799804688	-974.5194091796875	783.6488647460938	-558.8489990234375	-915.0787963867188	793.5181884765625	-515.395751953125	-1052.525634765625	1401.830078125	-77.01808166503906	-1078.5087890625	1345.04736328125	-3.022706747055054	-1095.083129882812	1069.32861328125	77.093017578125	-1141.138427734375	1050.200805664062	30.90549278259277	-999.9960327148438	852.9307250976562	70.3192138671875	-1076.276977539062	851.98583984375	116.9833602905273	-1096.117431640625	1012.16845703125	93.09966278076172	-1023.633605957031	697.892578125	94.49018859863281	-1001.931945800781	754.5648193359375	90.64418029785156	-1072.424438476562	768.3114624023438	125.8216018676758	-990.7776489257812	1635.02734375	-146.1410369873047	-860.938232421875	1621.021728515625	-306.5974731445312	-856.2171630859375	1624.679077148438	-176.2770843505859	-1012.290954589844	1637.58740234375	-322.5810546875	-1028.126831054688	855.0009155273438	-445.6484680175781	-1094.84130859375	840.2047729492188	-46.88915252685547	-991.8720092773438	885.6796264648438	-101.5379180908203	-942.1754760742188	884.4654541015625	-353.9280700683594	-1079.338989257812	436.9277954101562	-401.7866516113281	-1027.92041015625	583.98876953125	-420.6368408203125	-1201.583129882812	36.41912460327148	-387.5359191894531	-1103.019165039062	288.4608154296875	-407.946533203125	-979.5571899414062	56.44664764404297	-287.6263732910156	-1059.72216796875	55.79309844970703	-269.8045349121094	-1049.712158203125	51.05966567993164	-380.3008422851562	-1255.117309570312	42.18072891235352	-330.43994140625	-963.4793701171875	482.4103698730469	-8.331167221069336	-1017.774230957031	727.5140380859375	-22.74372863769531	-1202.212768554688	105.6639175415039	29.10003852844238	-1025.47314453125	354.8731689453125	17.71966552734375	-1004.123901367188	46.76870727539062	2.397071838378906	-1053.633422851562	56.94161605834961	-40.78067016601562	-1085.887817382812	57.09358978271484	60.52828979492188	-1256.784301757812	128.6732177734375	-23.34617233276367	
